<svg xmlns="http://www.w3.org/2000/svg" version="1.1" xmlns:xlink="http://www.w3.org/1999/xlink" xmlns:svgjs="http://svgjs.dev/svgjs" width="128" height="128" viewBox="0 0 128 128"><g transform="matrix(0.44782608695652176,0,0,0.44782608695652176,35.33913043478261,12.5)"><svg viewBox="0 0 125 225" data-background-color="#000000" preserveAspectRatio="xMidYMid meet" height="230" width="128" xmlns="http://www.w3.org/2000/svg" xmlns:xlink="http://www.w3.org/1999/xlink"><g id="tight-bounds" transform="matrix(1,0,0,1,0,0)"><svg viewBox="0 0 125 225" height="225" width="125"><g><svg></svg></g><g><svg viewBox="0 0 125 225" height="225" width="125"><g><path d="M85.773 58.206c0.276 0 2.486 1.105 3.73 1.52-0.414 0.138-1.381-0.276-2.486-0.691 0.276 0 0.829 0.138 1.381 0.414-0.276-0.276-2.348-0.967-2.625-1.243M65.193 53.925c0.414-0.138 5.249 0.552 7.459 0.69 0.138-0.138-0.276-0.138-0.829-0.276 0.691-0.138 2.072 0.276 3.039 0.414-2.901 0.138-6.077-0.691-8.84-0.414-0.967 0-0.276-0.276-0.829-0.414M61.188 53.925c2.486 0 4.42 0 0.829 0.276-0.414-0.138-0.967-0.138-0.829-0.276M100.276 65.389c0.276 0 1.381 1.243 1.934 1.657-0.138 0.138-1.243-0.967-1.796-1.381 0.138 0.138 0 0-0.138-0.276M97.514 63.593c-1.105-0.967-1.519-0.967-1.658-1.519 0.967 0.552 1.657 1.105 1.658 1.519M79.696 54.891c0.138-0.138 0.414 0.138 1.105 0.277-0.829-0.138-0.691 0-0.414 0.276-0.967-0.138-1.243-0.276-0.967-0.553 0.552 0.276 0.691 0.138 0.276 0M40.47 56.549c0-0.138 0.552-0.414 0.966-0.553-0.414 0.276-0.276 0.414 0.415 0.138 0 0.138-0.829 0.414-1.381 0.691 0.276-0.138 0.552-0.552 0-0.276M82.459 53.51c-0.414 0.138-1.934-0.691-3.453-0.967-0.829-0.276 3.315 0.691 3.453 0.967M0.967 121.742c0.829 3.453 0.276 3.315 0 0M1.105 101.024c0.138-0.552 0.276-2.072 0.414-1.934-0.414 3.315-1.105 4.834-1.243 7.321 0.414-2.21-0.138 1.243-0.276 2.072 0.138 1.105 0.138-0.691 0.414-0.415 0.276 0.414-0.552 6.215-0.276 3.039-0.276 2.901 0 6.077 0.553 6.906-0.691 4.42 2.762 14.365 3.453 16.436 0.138 0.138 0-0.691 0.276-0.138 0.276 1.796 1.519 3.039 1.934 4.973 0.414 0.552 2.072 3.591 2.348 4.281 0.552 1.105 0.829 0.967 1.381 2.072 1.657 3.177 4.282 6.215 6.768 9.116 8.011 9.392 20.304 17.127 33.978 19.89 13.674 2.901 28.039 0.829 39.226-4.558 0.691-0.414 0.552-0.552 1.381-0.829 3.867-1.243 8.564-5.249 11.188-6.768 1.243-1.381 4.558-3.729 4.973-5.11 2.348-1.934 4.696-5.111 5.939-7.183 0.691-1.105 1.243-1.105 1.519-1.795-0.138 0 2.21-2.901 2.901-4.558-0.276 0-0.691 0.829-0.691 0 4.972-9.53 7.735-22.376 6.216-31.216 0.276 10.912-2.486 23.066-7.735 30.801-2.348 4.972-7.182 10.359-11.602 14.227-0.691 0.691-1.381 1.519-2.21 2.072-2.624 2.21-5.525 4.006-8.564 5.663-7.182 4.006-15.193 7.459-24.585 7.596 16.16-1.381 30.663-9.53 38.674-19.475-6.077 5.939-8.702 8.287-15.47 11.74-0.552 0.967-5.111 2.901-8.149 3.73 1.796-0.829 5.525-2.21 6.768-3.315-10.083 4.834-21.271 7.597-31.768 6.077 4.006 0 9.669 0.138 15.055-0.829 0.829-0.276 1.243-0.552 2.21-0.69 10.497-2.348 20.58-7.459 27.762-14.641-4.144 3.729-10.359 8.149-14.364 9.53 3.729-2.072 10.497-6.077 12.707-9.116-4.42 4.42-12.707 8.84-17.956 10.774-0.829 0.138 0.552-0.552-0.829 0-1.657 0.414-0.967 0.414-1.381 0.69-6.354 1.796-13.674 3.315-19.751 2.763-1.105-0.138-1.519-0.414-2.486-0.414-1.105-0.138-2.072-0.138-3.315-0.139-4.834-0.552-10.083-2.486-13.951-4.143-2.072-0.967-4.144-1.657-6.215-2.901-1.657-0.967-3.039-2.072-4.42-3.177-5.249-3.867-9.669-7.735-13.812-13.259-7.459-10.359-11.326-23.343-10.774-36.188 0.552-12.845 5.663-25.414 13.813-34.669-0.414 0.414 0.552-0.967 1.381-1.795 0 0.276-0.138 0.691 0.829-0.276 0.829-0.967-0.276-0.276 0.138-0.829 8.564-9.392 23.481-16.989 38.812-17.265 0.552-0.414 1.519-0.967 2.624-0.691 0 0.138-0.691 0.138-0.69 0.138 1.519-0.138 2.901-0.138 3.591 0.138 0.138-0.138-0.552-0.276 0-0.276 0.967 0.276 1.243 0 1.795 0.276-0.414 0-0.829 0-1.105 0.138 3.453 0 5.663 0.829 9.116 1.105-1.796-0.414-2.21-0.414-3.591-0.828 1.519 0.276 2.21 0.552 2.901 0.414-0.276 0-0.138-0.414 0.138-0.276 2.762 0.691 3.039 0.967 5.939 1.933 0.276-0.276-1.243-0.414-1.657-0.828 2.762 0.967 5.249 1.657 6.906 2.762-0.552-0.414-2.21-0.967-3.453-1.519-0.138 0.138 0.414 0.276 0.552 0.552-1.381-0.691-3.315-1.381-5.248-1.657 1.657 0.414 2.762 0.967 3.453 1.243-1.519-0.276-3.453-1.243-5.663-1.658 3.591 1.105 10.359 3.591 14.502 5.802-1.519-0.967-3.315-1.657-4.281-2.21 0.829 0.138 1.796 0.691 1.795 0.414 0.967 0.414 2.21 1.381 2.901 1.519-1.243-0.829-3.729-2.072-4.558-2.486 10.359 4.696 19.613 12.569 25.552 22.652 0.552 0.967 1.381 3.177 2.072 3.453-0.138-0.691-0.691-1.105-1.243-2.21 0.276 0 0.276-0.414 0-0.829-0.552-0.691 0 0.552-0.553-0.138-2.486-4.558-5.525-8.564-10.221-12.983 2.624 2.486 0.691 0.691 0.139-0.138 3.591 3.177 7.735 8.564 9.53 11.326-0.276-0.414-0.414-0.691-0.276-0.691 3.315 5.663 5.387 10.773 7.458 18.094 0.138 0.138 0-0.552 0.276-0.138 1.381 5.801 1.796 10.635 1.658 15.055 1.105-7.459-1.381-19.061-5.801-28.177-0.552-1.105-0.552-0.276-1.105-1.519 0-0.414-0.414-1.243-0.691-1.796-5.525-9.116-12.293-15.608-20.304-20.718 0.552 0.276 1.657 1.105 1.658 0.967-14.917-9.807-32.182-11.188-46.409-8.149-0.967 0.414-1.381 0.829-2.486 1.381 2.072-0.691 3.315-0.829 5.248-1.243 0.414-0.414-1.796 0.138-0.828-0.276 0.138 0.138 1.934-0.276 2.348-0.138 0 0.138-0.552 0.276-0.691 0.414 4.558-0.967 9.254-1.105 13.26-0.829-2.348 0.138-6.63-0.276-8.011 0.415 1.381-0.138 3.315-0.276 4.558-0.138-1.657 0-4.696 0.138-6.078 0.276-0.138-0.138 2.21-0.414 0.691-0.415-0.691 0.138-1.796 0.138-2.21 0.553-11.878 1.105-23.481 7.32-31.63 14.641-1.657 1.381-3.591 2.901-4.834 4.42-3.039 3.453-4.972 6.906-7.182 9.944 1.381-2.901 4.42-7.32 8.011-11.049 3.591-3.729 7.459-6.906 9.53-8.564 0 0.552 3.315-2.072 4.558-2.9-0.829 0.691 0.552-0.276 0.829-0.139 4.42-2.624 8.011-3.591 12.016-5.11-0.967 0.276-1.796 0.552-1.933 0.414 0.967-0.276 1.519-0.552 1.381-0.69-3.867 1.105-9.945 3.729-14.779 6.63 8.702-5.939 19.751-9.53 30.663-9.669 10.912-0.276 21.547 2.486 29.972 6.906 5.663 2.486 11.05 7.044 15.332 11.464 1.243 1.105 0.276-0.276 2.072 1.658-0.552-0.276-0.967-0.552-0.277 0.276 1.105 1.243-0.276-0.967 1.52 1.243-0.138 0-0.691-0.691-0.691-0.414 4.834 4.282 8.564 12.017 10.774 17.127-0.552-2.072-1.934-4.972-3.039-7.044 3.315 6.077 4.42 9.669 5.801 15.055 0.552 0.414-0.276-1.934 0.276-0.829 0.138 0.829 0.276 3.453 0.829 3.867-0.414-2.624-1.105-5.801-1.657-6.353 0.414 0.276-0.691-3.177-1.382-4.006-0.276-2.21-2.21-6.077-3.867-8.978-5.939-11.602-16.575-21.133-28.453-26.381 0-0.276-0.691-0.552-0.967-0.829-11.74-4.972-25.829-6.354-39.365-3.176-13.674 3.315-26.519 11.188-35.635 22.514 0.414-1.381 3.867-4.006 4.006-5.111-4.006 4.282-8.287 9.945-11.188 16.022-3.039 6.077-4.696 12.293-5.387 16.851" fill="#4aeeff" fill-rule="nonzero" stroke="none" stroke-width="1" stroke-linecap="butt" stroke-linejoin="miter" stroke-miterlimit="10" stroke-dasharray="" stroke-dashoffset="0" font-family="none" font-weight="none" font-size="none" text-anchor="none" style="mix-blend-mode: normal" data-fill-palette-color="tertiary"></path></g><g transform="matrix(1,0,0,1,35.4625,81.06303317535546)"><svg viewBox="0 0 54.075 62.8739336492891" height="62.8739336492891" width="54.075"><g><svg viewBox="0 0 54.075 62.8739336492891" height="62.8739336492891" width="54.075"><g><svg viewBox="0 0 54.075 62.8739336492891" height="62.8739336492891" width="54.075"><g id="textblocktransform"><svg viewBox="0 0 54.075 62.8739336492891" height="62.8739336492891" width="54.075" id="textblock"><g><svg viewBox="0 0 54.075 62.8739336492891" height="62.8739336492891" width="54.075"><g transform="matrix(1,0,0,1,0,0)"><svg width="54.075" viewBox="3.08 -35.94 30.9 35.94" height="62.8739336492891" data-palette-color="#00b6ec"><path d="M21.48-35.94L33.98 0 27.93 0 18.6-26.95 9.18 0 3.08 0 15.67-35.94 21.48-35.94ZM15.28-11.43L21.83-11.43 23.24-7.47 13.92-7.47 15.28-11.43Z" opacity="1" transform="matrix(1,0,0,1,0,0)" fill="#00b6ec" class="wordmark-text-0" data-fill-palette-color="primary" id="text-0"></path></svg></g></svg></g></svg></g></svg></g></svg></g></svg></g></svg></g><defs></defs></svg><rect width="125" height="225" fill="none" stroke="none" visibility="hidden"></rect></g></svg></g></svg>