<svg xmlns="http://www.w3.org/2000/svg" version="1.1" xmlns:xlink="http://www.w3.org/1999/xlink" xmlns:svgjs="http://svgjs.dev/svgjs" width="1500" height="1500" viewBox="0 0 1500 1500"><rect width="1500" height="1500" fill="#000000"></rect><g transform="matrix(0.6666666666666666,0,0,0.6666666666666666,250,187.66666666666674)"><svg viewBox="0 0 320 360" data-background-color="#000000" preserveAspectRatio="xMidYMid meet" height="1687" width="1500" xmlns="http://www.w3.org/2000/svg" xmlns:xlink="http://www.w3.org/1999/xlink"><g id="tight-bounds" transform="matrix(1,0,0,1,0,0)"><svg viewBox="0 0 320 360" height="360" width="320"><g><svg></svg></g><g><svg viewBox="0 0 320 360" height="360" width="320"><g><path d="M219.58 41.008c0.707 0 6.365 2.829 9.547 3.89-1.061 0.354-3.536-0.707-6.365-1.768 0.707 0 2.122 0.354 3.536 1.06-0.707-0.707-6.011-2.475-6.718-3.182M166.895 30.047c1.061-0.354 13.436 1.414 19.094 1.768 0.354-0.354-0.707-0.354-2.122-0.707 1.768-0.354 5.304 0.707 7.779 1.06-7.425 0.354-15.558-1.768-22.629-1.06-2.475 0-0.707-0.707-2.122-1.061M156.641 30.047c6.365 0 11.315 0 2.121 0.707-1.061-0.354-2.475-0.354-2.121-0.707M256.707 59.395c0.707 0 3.536 3.182 4.95 4.243-0.354 0.354-3.182-2.475-4.596-3.536 0.354 0.354 0 0-0.354-0.707M249.635 54.798c-2.829-2.475-3.889-2.475-4.243-3.889 2.475 1.414 4.243 2.829 4.243 3.889M204.022 32.522c0.354-0.354 1.061 0.354 2.829 0.707-2.122-0.354-1.768 0-1.061 0.707-2.475-0.354-3.182-0.707-2.475-1.414 1.414 0.707 1.768 0.354 0.707 0M103.602 36.765c0-0.354 1.414-1.061 2.475-1.414-1.061 0.707-0.707 1.061 1.061 0.353 0 0.354-2.122 1.061-3.536 1.768 0.707-0.354 1.414-1.414 0-0.707M211.094 28.986c-1.061 0.354-4.95-1.768-8.84-2.475-2.122-0.707 8.486 1.768 8.84 2.475M2.475 203.66c2.122 8.84 0.707 8.486 0 0M2.829 150.621c0.354-1.414 0.707-5.304 1.06-4.95-1.061 8.486-2.829 12.376-3.182 18.74 1.061-5.657-0.354 3.182-0.707 5.304 0.354 2.829 0.354-1.768 1.061-1.06 0.707 1.061-1.414 15.912-0.707 7.779-0.707 7.425 0 15.558 1.414 17.679-1.768 11.315 7.072 36.773 8.84 42.077 0.354 0.354 0-1.768 0.707-0.353 0.707 4.597 3.889 7.779 4.95 12.729 1.061 1.414 5.304 9.193 6.011 10.962 1.414 2.829 2.122 2.475 3.536 5.303 4.243 8.133 10.961 15.912 17.326 23.337 20.508 24.044 51.978 43.845 86.984 50.918 35.006 7.425 71.779 2.122 100.419-11.669 1.768-1.061 1.414-1.414 3.536-2.122 9.901-3.182 21.923-13.436 28.641-17.326 3.182-3.536 11.669-9.547 12.73-13.082 6.011-4.95 12.022-13.083 15.204-18.387 1.768-2.829 3.182-2.829 3.889-4.597-0.354 0 5.657-7.425 7.426-11.668-0.707 0-1.768 2.122-1.768 0 12.729-24.398 19.801-57.282 15.911-79.912 0.707 27.934-6.365 59.05-19.801 78.851-6.011 12.729-18.387 26.519-29.701 36.42-1.768 1.768-3.536 3.889-5.658 5.304-6.718 5.657-14.144 10.254-21.922 14.497-18.387 10.254-38.895 19.094-62.94 19.447 41.37-3.536 78.497-24.398 99.006-49.856-15.558 15.204-22.276 21.215-39.602 30.055-1.414 2.475-13.083 7.425-20.862 9.547 4.597-2.122 14.144-5.657 17.326-8.486-25.812 12.376-54.453 19.448-81.326 15.558 10.254 0 24.751 0.354 38.541-2.121 2.122-0.707 3.182-1.414 5.658-1.768 26.873-6.011 52.685-19.094 71.072-37.481-10.608 9.547-26.519 20.862-36.774 24.398 9.547-5.304 26.873-15.558 32.53-23.337-11.315 11.315-32.53 22.63-45.966 27.58-2.122 0.354 1.414-1.414-2.122 0-4.243 1.061-2.475 1.061-3.536 1.768-16.265 4.597-35.006 8.486-50.563 7.072-2.829-0.354-3.889-1.061-6.365-1.061-2.829-0.354-5.304-0.354-8.486-0.354-12.376-1.414-25.812-6.365-35.713-10.607-5.304-2.475-10.608-4.243-15.912-7.426-4.243-2.475-7.779-5.304-11.314-8.132-13.436-9.901-24.751-19.801-35.36-33.945-19.094-26.519-28.994-59.757-27.58-92.641 1.414-32.884 14.497-65.061 35.359-88.752-1.061 1.061 1.414-2.475 3.536-4.596 0 0.707-0.354 1.768 2.122-0.707 2.122-2.475-0.707-0.707 0.353-2.122 21.923-24.044 60.111-43.492 99.36-44.199 1.414-1.061 3.889-2.475 6.718-1.768 0 0.354-1.768 0.354-1.768 0.354 3.889-0.354 7.425-0.354 9.193 0.353 0.354-0.354-1.414-0.707 0-0.707 2.475 0.707 3.182 0 4.597 0.707-1.061 0-2.122 0-2.829 0.354 8.84 0 14.497 2.122 23.337 2.829-4.597-1.061-5.657-1.061-9.193-2.122 3.889 0.707 5.657 1.414 7.425 1.061-0.707 0-0.354-1.061 0.354-0.707 7.072 1.768 7.779 2.475 15.204 4.95 0.707-0.707-3.182-1.061-4.243-2.122 7.072 2.475 13.436 4.243 17.68 7.072-1.414-1.061-5.657-2.475-8.84-3.889-0.354 0.354 1.061 0.707 1.414 1.414-3.536-1.768-8.486-3.536-13.436-4.243 4.243 1.061 7.072 2.475 8.84 3.182-3.889-0.707-8.84-3.182-14.498-4.243 9.193 2.829 26.519 9.193 37.127 14.851-3.889-2.475-8.486-4.243-10.961-5.657 2.122 0.354 4.597 1.768 4.597 1.06 2.475 1.061 5.657 3.536 7.425 3.89-3.182-2.122-9.547-5.304-11.668-6.365 26.519 12.022 50.21 32.177 65.414 57.989 1.414 2.475 3.536 8.133 5.304 8.84-0.354-1.768-1.768-2.829-3.182-5.657 0.707 0 0.707-1.061 0-2.122-1.414-1.768 0 1.414-1.415-0.354-6.365-11.669-14.144-21.923-26.165-33.237 6.718 6.365 1.768 1.768 0.353-0.354 9.193 8.133 19.801 21.923 24.398 28.995-0.707-1.061-1.061-1.768-0.707-1.768 8.486 14.497 13.79 27.58 19.094 46.32 0.354 0.354 0-1.414 0.707-0.353 3.536 14.851 4.597 27.227 4.243 38.541 2.829-19.094-3.536-48.796-14.851-72.133-1.414-2.829-1.414-0.707-2.829-3.889 0-1.061-1.061-3.182-1.768-4.597-14.144-23.337-31.47-39.956-51.978-53.038 1.414 0.707 4.243 2.829 4.244 2.475-38.188-25.105-82.387-28.641-118.807-20.862-2.475 1.061-3.536 2.122-6.365 3.536 5.304-1.768 8.486-2.122 13.437-3.183 1.061-1.061-4.597 0.354-2.122-0.707 0.354 0.354 4.95-0.707 6.011-0.353 0 0.354-1.414 0.707-1.768 1.06 11.669-2.475 23.691-2.829 33.945-2.121-6.011 0.354-16.972-0.707-20.508 1.061 3.536-0.354 8.486-0.707 11.668-0.354-4.243 0-12.022 0.354-15.558 0.707-0.354-0.354 5.657-1.061 1.768-1.06-1.768 0.354-4.597 0.354-5.657 1.414-30.409 2.829-60.111 18.74-80.973 37.481-4.243 3.536-9.193 7.425-12.375 11.314-7.779 8.84-12.729 17.68-18.387 25.459 3.536-7.425 11.315-18.74 20.508-28.287 9.193-9.547 19.094-17.68 24.398-21.923 0 1.414 8.486-5.304 11.669-7.425-2.122 1.768 1.414-0.707 2.121-0.354 11.315-6.718 20.508-9.193 30.763-13.083-2.475 0.707-4.597 1.414-4.951 1.061 2.475-0.707 3.889-1.414 3.536-1.768-9.901 2.829-25.459 9.547-37.834 16.972 22.276-15.204 50.564-24.398 78.497-24.751 27.934-0.707 55.16 6.365 76.729 17.68 14.497 6.365 28.287 18.033 39.249 29.348 3.182 2.829 0.707-0.707 5.304 4.243-1.414-0.707-2.475-1.414-0.707 0.707 2.829 3.182-0.707-2.475 3.889 3.182-0.354 0-1.768-1.768-1.768-1.061 12.376 10.961 21.923 30.762 27.58 43.846-1.414-5.304-4.95-12.729-7.779-18.033 8.486 15.558 11.315 24.751 14.851 38.541 1.414 1.061-0.707-4.95 0.707-2.121 0.354 2.122 0.707 8.84 2.122 9.9-1.061-6.718-2.829-14.851-4.243-16.265 1.061 0.707-1.768-8.133-3.536-10.254-0.707-5.657-5.657-15.558-9.901-22.984-15.204-29.702-42.431-54.099-72.839-67.536 0-0.707-1.768-1.414-2.476-2.121-30.055-12.729-66.122-16.265-100.773-8.133-35.006 8.486-67.889 28.641-91.227 57.636 1.061-3.536 9.901-10.254 10.255-13.083-10.254 10.961-21.215 25.459-28.641 41.016-7.779 15.558-12.022 31.47-13.79 43.138" fill="#4aeeff" fill-rule="nonzero" stroke="none" stroke-width="1" stroke-linecap="butt" stroke-linejoin="miter" stroke-miterlimit="10" stroke-dasharray="" stroke-dashoffset="0" font-family="none" font-weight="none" font-size="none" text-anchor="none" style="mix-blend-mode: normal" data-fill-palette-color="tertiary"></path></g><g transform="matrix(1,0,0,1,48,161.16123745134195)"><svg viewBox="0 0 224 37.67752509731613" height="37.67752509731613" width="224"><g><svg viewBox="0 0 224 37.67752509731613" height="37.67752509731613" width="224"><g><svg viewBox="0 0 224 37.67752509731613" height="37.67752509731613" width="224"><g><svg viewBox="0 0 224 37.67752509731613" height="37.67752509731613" width="224"><g id="textblocktransform"><svg viewBox="0 0 224 37.67752509731613" height="37.67752509731613" width="224" id="textblock"><g><svg viewBox="0 0 224 37.67752509731613" height="37.67752509731613" width="224"><g transform="matrix(1,0,0,1,0,0)"><svg width="224" viewBox="3.08 -39.84 238.29999999999998 40.080000000000005" height="37.67752509731613" data-palette-color="#00b6ec"><path d="M21.48-35.94L33.98 0 27.93 0 18.6-26.95 9.18 0 3.08 0 15.67-35.94 21.48-35.94ZM15.28-11.43L21.83-11.43 23.24-7.47 13.92-7.47 15.28-11.43ZM41.26-27.54L46.58-27.54 47.21-24.71 47.21 0 41.26 0 41.26-27.54ZM69.63-27.83L69.63-27.83Q71.29-27.83 72.75-27.17 74.22-26.51 75.31-25.29 76.41-24.07 77.02-22.39 77.63-20.7 77.63-18.75L77.63-18.75 77.63 0 71.77 0 71.77-14.99Q71.77-16.65 71.75-18.14 71.73-19.63 71.43-20.8 71.14-21.97 70.48-22.63 69.82-23.29 68.45-23.29L68.45-23.29Q68.11-23.29 66.99-23.14 65.87-23 64.4-22.31L64.4-22.31 64.4-26.17Q65.72-26.95 67.09-27.39 68.45-27.83 69.63-27.83ZM61.18-24.07L61.18-24.07Q61.77-23.19 62.03-22.19 62.3-21.19 62.38-20.12 62.45-19.04 62.42-17.9 62.4-16.75 62.4-15.48L62.4-15.48 62.4 0 56.49 0 56.49-14.99Q56.49-16.65 56.49-18.14 56.49-19.63 56.2-20.8 55.91-21.97 55.22-22.63 54.54-23.29 53.22-23.29L53.22-23.29Q52.63-23.29 51.49-23.07 50.34-22.85 49.22-22.31L49.22-22.31 49.22-26.17Q50.39-26.86 51.73-27.29 53.07-27.73 54.39-27.73L54.39-27.73Q56.64-27.73 58.18-26.81 59.71-25.88 61.18-24.07ZM91.94-27.54L91.94 0 85.98 0 85.98-27.54 91.94-27.54ZM92.48-36.33L92.48-36.33Q92.48-34.86 91.45-33.86 90.42-32.86 88.96-32.86L88.96-32.86Q87.5-32.86 86.49-33.89 85.49-34.91 85.49-36.33L85.49-36.33Q85.49-37.79 86.52-38.82 87.54-39.84 88.96-39.84L88.96-39.84Q90.42-39.84 91.45-38.82 92.48-37.79 92.48-36.33ZM108.1-23.54L108.1-8.35Q108.1-6.69 108.54-5.76 108.98-4.83 109.78-4.35 110.59-3.86 111.59-3.74 112.59-3.61 113.71-3.61L113.71-3.61 113.71 0Q113.08 0.1 112.44 0.15L112.44 0.15Q111.91 0.2 111.15 0.22 110.39 0.24 109.66 0.24L109.66 0.24Q108.93 0.24 108.17 0.2 107.41 0.15 106.88 0.05L106.88 0.05Q105.22-0.24 104.29-1.39 103.36-2.54 102.9-3.93 102.43-5.32 102.31-6.64 102.19-7.96 102.19-8.69L102.19-8.69 102.19-23.54 98.58-23.54 98.58-27.54 102.19-27.54 102.19-35.35 108.1-35.35 108.1-27.54 112.49-27.54 112.49-23.54 108.1-23.54ZM150.87-30.42L150.87-30.42Q150.62-30.52 150.28-30.76 149.94-31.01 149.3-31.23 148.67-31.45 147.69-31.59 146.72-31.74 145.2-31.64L145.2-31.64 145.2-36.57Q147.35-36.52 149.57-36.11 151.79-35.69 153.16-34.81L153.16-34.81Q152.87-34.18 152.48-33.42 152.09-32.67 151.75-32.01 151.4-31.35 151.16-30.91 150.92-30.47 150.87-30.42ZM134.02-26.51L134.02-26.51Q134.02-28.66 134.75-30.37 135.49-32.08 136.73-33.37 137.98-34.67 139.66-35.42 141.34-36.18 143.2-36.43L143.2-36.43 143.2-31.3Q141.64-30.76 140.61-29.42 139.59-28.08 139.59-26.71L139.59-26.71Q139.59-24.8 140.61-23.63 141.64-22.46 143.2-21.58L143.2-21.58 143.2-16.02Q141.59-16.8 139.98-17.7 138.37-18.6 137.05-19.82 135.73-21.04 134.88-22.66 134.02-24.27 134.02-26.51ZM133.78-2.39L134.8-6.59Q135.49-6.2 136.54-5.83 137.59-5.47 138.71-5.15 139.83-4.83 140.95-4.64 142.08-4.44 143.05-4.44L143.05-4.44 143.2-4.44 143.2 0.2 143.1 0.2Q141.93 0.2 140.69 0.07 139.44-0.05 138.17-0.34 136.9-0.63 135.75-1.15 134.61-1.66 133.78-2.39L133.78-2.39ZM145.2-14.89L145.2-20.61Q146.81-19.87 148.5-19.04 150.18-18.21 151.55-17.02 152.92-15.82 153.8-14.11 154.68-12.4 154.68-9.86L154.68-9.86Q154.68-8.11 154.02-6.45 153.36-4.79 152.16-3.44 150.96-2.1 149.21-1.17 147.45-0.24 145.2 0.05L145.2 0.05 145.2-4.64Q149.21-5.62 149.21-9.96L149.21-9.96Q149.21-11.67 148.08-12.79 146.96-13.92 145.2-14.89L145.2-14.89ZM165.27-8.3L165.27-8.3Q165.27-6.1 166.17-5.03 167.07-3.96 168.78-3.76L168.78-3.76 168.78 0.2Q168.59 0.24 168.15 0.24L168.15 0.24Q166.49 0.24 164.95-0.2 163.41-0.63 162.24-1.61 161.07-2.59 160.41-4.2 159.75-5.81 159.75-8.15L159.75-8.15Q159.75-10.4 160.7-12.04 161.65-13.67 163.14-14.72 164.63-15.77 166.54-16.28 168.44-16.8 170.4-16.8L170.4-16.8 172.54-16.8 172.54-13.33 171.47-13.33Q170.49-13.33 169.42-13.13 168.34-12.94 167.42-12.4 166.49-11.87 165.88-10.86 165.27-9.86 165.27-8.3ZM180.45-8.54L180.45-8.15Q180.45-7.76 180.5-7.01 180.55-6.25 180.7-5.47 180.84-4.69 181.16-4.05 181.48-3.42 182.02-3.22L182.02-3.22 180.45 0.05Q179.82 0.05 179.11-0.24 178.4-0.54 177.74-1.07 177.08-1.61 176.62-2.27 176.16-2.93 175.91-3.71L175.91-3.71Q175.42-2.49 173.98-1.54 172.54-0.59 170.79-0.15L170.79-0.15 170.79-3.86Q171.96-4.1 172.91-4.81 173.86-5.52 174.55-6.49L174.55-6.49 174.55-16.8Q174.55-19.19 174.3-20.61 174.06-22.02 173.47-22.68 172.89-23.34 172.03-23.51 171.18-23.68 170-23.68L170-23.68Q168.93-23.68 167.98-23.41 167.03-23.14 166.22-22.78 165.41-22.41 164.8-21.97 164.19-21.53 163.9-21.29L163.9-21.29 161.7-24.66Q162.19-25.2 163.17-25.76 164.15-26.32 165.41-26.76 166.68-27.2 168.17-27.47 169.66-27.73 171.27-27.73L171.27-27.73Q172.74-27.73 174.13-27.44 175.52-27.15 176.67-26.46 177.82-25.78 178.67-24.63 179.53-23.49 179.87-21.78L179.87-21.78Q180.21-20.07 180.33-18.33 180.45-16.6 180.45-14.89L180.45-14.89 180.45-8.54ZM195.69-27.54L195.69 0 189.73 0 189.73-27.54 195.69-27.54ZM196.22-36.33L196.22-36.33Q196.22-34.86 195.2-33.86 194.17-32.86 192.71-32.86L192.71-32.86Q191.24-32.86 190.24-33.89 189.24-34.91 189.24-36.33L189.24-36.33Q189.24-37.79 190.27-38.82 191.29-39.84 192.71-39.84L192.71-39.84Q194.17-39.84 195.2-38.82 196.22-37.79 196.22-36.33ZM203.98-27.54L209.26-27.54 209.89-24.76 209.89 0 203.98 0 203.98-27.54ZM224.49-24.51L224.49-24.51Q225.32-23.68 225.79-22.58 226.25-21.48 226.47-20.29 226.69-19.09 226.74-17.87 226.79-16.65 226.79-15.48L226.79-15.48 226.79-0.98 226.79 0 220.83 0 220.83-14.99Q220.83-16.65 220.68-18.16 220.54-19.68 220-20.85 219.46-22.02 218.53-22.68 217.61-23.34 215.95-23.34L215.95-23.34Q215.26-23.34 214.12-23.12 212.97-22.9 211.89-22.41L211.89-22.41 211.89-26.17Q213.21-26.86 214.75-27.34 216.29-27.83 217.75-27.83L217.75-27.83Q219.95-27.83 221.46-26.93 222.98-26.03 224.49-24.51ZM240.85-27.54L240.85 0 234.89 0 234.89-27.54 240.85-27.54ZM241.38-36.33L241.38-36.33Q241.38-34.86 240.36-33.86 239.33-32.86 237.87-32.86L237.87-32.86Q236.4-32.86 235.4-33.89 234.4-34.91 234.4-36.33L234.4-36.33Q234.4-37.79 235.43-38.82 236.45-39.84 237.87-39.84L237.87-39.84Q239.33-39.84 240.36-38.82 241.38-37.79 241.38-36.33Z" opacity="1" transform="matrix(1,0,0,1,0,0)" fill="#00b6ec" class="wordmark-text-0" data-fill-palette-color="primary" id="text-0"></path></svg></g></svg></g></svg></g></svg></g></svg></g></svg></g></svg></g></svg></g><defs></defs></svg><rect width="320" height="360" fill="none" stroke="none" visibility="hidden"></rect></g></svg></g></svg>